<svg width="38" height="42" viewBox="0 0 38 42" fill="none" xmlns="http://www.w3.org/2000/svg">
<g id="Calendar">
<path id="Calendar_2" fill-rule="evenodd" clip-rule="evenodd" d="M28.1893 1.76791L28.1914 3.32963C33.9302 3.77941 37.7212 7.68995 37.7273 13.6869L37.75 31.2407C37.7582 37.779 33.6505 41.802 27.0663 41.8124L10.9831 41.8333C4.43999 41.8416 0.280874 37.7228 0.272647 31.1657L0.25002 13.8181C0.241793 7.78157 3.89902 3.88144 9.63786 3.35462L9.63581 1.7929C9.63375 0.876694 10.3125 0.187456 11.2176 0.187456C12.1226 0.185374 12.8014 0.872529 12.8035 1.78874L12.8055 3.24634L25.0237 3.22968L25.0217 1.77208C25.0196 0.855871 25.6984 0.168715 26.6034 0.166633C27.4879 0.164551 28.1873 0.851707 28.1893 1.76791ZM3.41976 14.4616L34.5617 14.4199V13.6911C34.4733 9.21419 32.2271 6.86536 28.1955 6.51554L28.1976 8.1189C28.1976 9.01429 27.5003 9.72435 26.6158 9.72435C25.7107 9.72643 25.0299 9.01845 25.0299 8.12307L25.0278 6.43641L12.8097 6.45307L12.8117 8.13764C12.8117 9.03511 12.135 9.74309 11.2299 9.74309C10.3249 9.74517 9.64404 9.03927 9.64404 8.14181L9.64198 6.53844C5.63096 6.94033 3.41153 9.29748 3.4177 13.814L3.41976 14.4616ZM25.7498 23.9256V23.9485C25.7704 24.9063 26.552 25.633 27.5003 25.6122C28.4259 25.5893 29.1643 24.796 29.1438 23.8381C29.1006 22.9219 28.358 22.1744 27.4345 22.1764C26.4883 22.1973 25.7478 22.9677 25.7498 23.9256ZM27.4489 33.2751C26.5027 33.2542 25.7395 32.465 25.7375 31.5072C25.7169 30.5493 26.4759 29.756 27.4221 29.7331H27.4427C28.4094 29.7331 29.1931 30.5223 29.1931 31.5009C29.1952 32.4796 28.4136 33.273 27.4489 33.2751ZM17.2753 23.9589C17.3164 24.9167 18.1001 25.6643 19.0463 25.6226C19.9719 25.5789 20.7103 24.7876 20.6692 23.8298C20.6466 22.8928 19.8855 22.1639 18.9599 22.166C18.0137 22.2077 17.2732 23.001 17.2753 23.9589ZM19.0545 33.1814C18.1083 33.223 17.3267 32.4755 17.2835 31.5176C17.2835 30.5597 18.0219 29.7685 18.9681 29.7247C19.8937 29.7227 20.6569 30.4515 20.6774 31.3864C20.7206 32.3464 19.9801 33.1376 19.0545 33.1814ZM8.8007 24.0318C8.84184 24.9896 9.62553 25.7392 10.5717 25.6955C11.4973 25.6539 12.2358 24.8605 12.1926 23.9027C12.172 22.9656 11.4109 22.2368 10.4833 22.2389C9.53708 22.2806 8.79864 23.0739 8.8007 24.0318ZM10.5799 33.1918C9.63376 33.2355 8.85212 32.4859 8.80893 31.528C8.80687 30.5702 9.54737 29.7768 10.4936 29.7352C11.4192 29.7331 12.1823 30.4619 12.2029 31.3989C12.2461 32.3568 11.5076 33.1501 10.5799 33.1918Z" fill="#3A3A3A"/>
</g>
</svg>
