<svg width="40" height="40" viewBox="0 0 40 40" fill="none" xmlns="http://www.w3.org/2000/svg">
<g id="Category">
<path id="Category_2" fill-rule="evenodd" clip-rule="evenodd" d="M2.53991 17.4601L5.9199 14.0801C7.3299 12.6701 9.6099 12.6901 11.0209 14.1011L14.4299 17.5101C15.8499 18.9301 15.8599 21.2001 14.4499 22.6101L11.0699 25.9901C9.6699 27.3901 7.3899 27.3901 5.9699 25.9701L2.56091 22.5611C1.14991 21.1501 1.13991 18.8601 2.53991 17.4601ZM14.0096 28.9298L17.3896 25.5498C18.7996 24.1398 21.0706 24.1508 22.4906 25.5708L25.8996 28.9798C27.3096 30.3898 27.3296 32.6698 25.9196 34.0798L22.5396 37.4598C21.1396 38.8598 18.8496 38.8498 17.4396 37.4398L14.0306 34.0308C12.6106 32.6108 12.6096 30.3298 14.0096 28.9298ZM17.46 2.54004L14.08 5.92004C12.67 7.33004 12.69 9.61003 14.101 11.021L17.51 14.43C18.93 15.85 21.2 15.86 22.61 14.45L25.99 11.07C27.39 9.67003 27.39 7.39004 25.97 5.97004L22.561 2.56104C21.15 1.15004 18.86 1.14004 17.46 2.54004ZM25.5497 17.3897L28.9297 14.0097C30.3297 12.6097 32.6107 12.6107 34.0307 14.0307L37.4397 17.4397C38.8497 18.8497 38.8597 21.1397 37.4597 22.5397L34.0797 25.9197C32.6697 27.3297 30.3897 27.3097 28.9797 25.8997L25.5707 22.4907C24.1507 21.0707 24.1397 18.7997 25.5497 17.3897Z" fill="#3A3A3A"/>
</g>
</svg>
