<svg width="26" height="26" viewBox="0 0 26 26" fill="none" xmlns="http://www.w3.org/2000/svg">
<g id="Category">
<path id="Stroke 1" fill-rule="evenodd" clip-rule="evenodd" d="M2.74688 15.4749C0.890571 13.6186 0.291879 12.9802 2.74688 10.5252C5.20187 8.07016 5.84032 8.66885 7.69662 10.5252C9.55293 12.3815 10.1793 12.9922 7.69662 15.4749C5.21392 17.9576 4.60318 17.3312 2.74688 15.4749Z" stroke="white" stroke-width="1.5" stroke-linecap="round" stroke-linejoin="round"/>
<path id="Stroke 3" fill-rule="evenodd" clip-rule="evenodd" d="M10.525 7.69673C8.66874 5.84042 8.07005 5.20198 10.525 2.74698C12.98 0.291984 13.6185 0.890676 15.4748 2.74698C17.3311 4.60329 17.9575 5.21403 15.4748 7.69673C12.9921 10.1794 12.3814 9.55303 10.525 7.69673Z" fill="white" stroke="white" stroke-width="1.5" stroke-linecap="round" stroke-linejoin="round"/>
<path id="Stroke 5" fill-rule="evenodd" clip-rule="evenodd" d="M10.525 23.2531C8.66874 21.3968 8.07005 20.7583 10.525 18.3033C12.98 15.8483 13.6185 16.447 15.4748 18.3033C17.3311 20.1596 17.9575 20.7704 15.4748 23.2531C12.9921 25.7358 12.3814 25.1094 10.525 23.2531Z" fill="white" stroke="white" stroke-width="1.5" stroke-linecap="round" stroke-linejoin="round"/>
<path id="Stroke 7" fill-rule="evenodd" clip-rule="evenodd" d="M18.3032 15.4749C16.4469 13.6186 15.8482 12.9802 18.3032 10.5252C20.7582 8.07016 21.3967 8.66885 23.253 10.5252C25.1093 12.3815 25.7357 12.9922 23.253 15.4749C20.7703 17.9576 20.1595 17.3312 18.3032 15.4749Z" stroke="white" stroke-width="1.5" stroke-linecap="round" stroke-linejoin="round"/>
</g>
</svg>
