<svg width="34" height="34" viewBox="0 0 34 34" fill="none" xmlns="http://www.w3.org/2000/svg">
<g id="Chat">
<path id="Chat_2" fill-rule="evenodd" clip-rule="evenodd" d="M0.333344 17.025C0.333344 8.24521 7.35001 0.333344 17.0333 0.333344C26.5 0.333344 33.6667 8.09499 33.6667 16.975C33.6667 27.2738 25.2667 33.6667 17 33.6667C14.2667 33.6667 11.2333 32.9322 8.80001 31.4968C7.95001 30.9793 7.23334 30.5954 6.31668 30.8959L2.95001 31.8974C2.10001 32.1644 1.33334 31.4968 1.58334 30.5954L2.70001 26.8565C2.88334 26.339 2.85001 25.7882 2.58334 25.3542C1.15001 22.7169 0.333344 19.8293 0.333344 17.025ZM14.8333 17.025C14.8333 18.2102 15.7833 19.1616 16.9667 19.1783C18.15 19.1783 19.1 18.2102 19.1 17.0417C19.1 15.8566 18.15 14.9052 16.9667 14.9052C15.8 14.8885 14.8333 15.8566 14.8333 17.025ZM22.5167 17.0417C22.5167 18.2102 23.4667 19.1783 24.65 19.1783C25.8333 19.1783 26.7833 18.2102 26.7833 17.0417C26.7833 15.8566 25.8333 14.9052 24.65 14.9052C23.4667 14.9052 22.5167 15.8566 22.5167 17.0417ZM9.28334 19.1783C8.11668 19.1783 7.15001 18.2102 7.15001 17.0417C7.15001 15.8566 8.10001 14.9052 9.28334 14.9052C10.4667 14.9052 11.4167 15.8566 11.4167 17.0417C11.4167 18.2102 10.4667 19.1616 9.28334 19.1783Z" fill="white"/>
</g>
</svg>
