<svg width="40" height="42" viewBox="0 0 40 42" fill="none" xmlns="http://www.w3.org/2000/svg">
<g id="Home">
<path id="Home_2" d="M14.0308 39.2778V32.9075C14.0308 31.2813 15.3587 29.9631 16.9968 29.9631H22.9846C23.7712 29.9631 24.5256 30.2733 25.0819 30.8255C25.6381 31.3777 25.9506 32.1266 25.9506 32.9075V39.2778C25.9456 39.9538 26.2127 40.6039 26.6925 41.0837C27.1723 41.5635 27.8251 41.8333 28.5061 41.8333H32.5913C34.4993 41.8382 36.3307 41.0892 37.6816 39.7516C39.0325 38.4141 39.7917 36.5978 39.7917 34.7038V16.5559C39.7916 15.0259 39.1085 13.5746 37.9263 12.593L24.0292 1.57469C21.6118 -0.357204 18.1482 -0.294828 15.8029 1.72283L2.22295 12.593C0.984887 13.5457 0.244911 15.0013 0.208344 16.5559V34.6852C0.208344 38.633 3.43206 41.8333 7.40871 41.8333H11.4006C12.8151 41.8333 13.9646 40.7004 13.9748 39.2963L14.0308 39.2778Z" fill="white"/>
</g>
</svg>
