<svg width="42" height="42" viewBox="0 0 42 42" fill="none" xmlns="http://www.w3.org/2000/svg">
<path fill-rule="evenodd" clip-rule="evenodd" d="M6.125 18.0561C6.125 10.0063 12.8518 3.5 20.9885 3.5C29.1482 3.5 35.875 10.0063 35.875 18.0561C35.875 22.1125 34.3998 25.8783 31.9716 29.0703C29.2929 32.5912 25.9913 35.6588 22.2749 38.0667C21.4244 38.6232 20.6568 38.6652 19.7233 38.0667C15.9858 35.6588 12.6842 32.5912 10.0284 29.0703C7.59847 25.8783 6.125 22.1125 6.125 18.0561ZM16.0899 18.5093C16.0899 21.206 18.2904 23.3269 20.9885 23.3269C23.6884 23.3269 25.9101 21.206 25.9101 18.5093C25.9101 15.8336 23.6884 13.6095 20.9885 13.6095C18.2904 13.6095 16.0899 15.8336 16.0899 18.5093Z" fill="#141414"/>
</svg>
