<svg width="32" height="37" viewBox="0 0 32 37" fill="none" xmlns="http://www.w3.org/2000/svg">
<path fill-rule="evenodd" clip-rule="evenodd" d="M25.9411 9.87828V12.6383C29.0413 13.606 31.3002 16.4125 31.3002 19.7646V28.651C31.3002 32.8009 27.8598 36.1655 23.6182 36.1655H8.38403C4.14064 36.1655 0.700195 32.8009 0.700195 28.651V19.7646C0.700195 16.4125 2.9609 13.606 6.05931 12.6383V9.87828C6.0776 4.51208 10.5222 0.165466 15.9728 0.165466C21.4965 0.165466 25.9411 4.51208 25.9411 9.87828ZM16.0091 3.29564C19.7221 3.29564 22.74 6.24705 22.74 9.87817V12.25H9.25995V9.8424C9.27824 6.22916 12.2962 3.29564 16.0091 3.29564ZM17.6003 26.1843C17.6003 27.0608 16.887 27.7584 15.9907 27.7584C15.1128 27.7584 14.3995 27.0608 14.3995 26.1843V22.2134C14.3995 21.3548 15.1128 20.6572 15.9907 20.6572C16.887 20.6572 17.6003 21.3548 17.6003 22.2134V26.1843Z" fill="white"/>
</svg>
