<svg width="38" height="38" viewBox="0 0 38 38" fill="none" xmlns="http://www.w3.org/2000/svg">
<path fill-rule="evenodd" clip-rule="evenodd" d="M15.6675 17.7809C14.9748 17.7809 14.427 18.3192 14.427 19C14.427 19.665 14.9748 20.2192 15.6675 20.2192H25.3332V27.7875C25.3332 31.6667 22.1274 34.8334 18.1644 34.8334H10.3191C6.37229 34.8334 3.1665 31.6825 3.1665 27.8034V10.2125C3.1665 6.31752 6.3884 3.16669 10.3352 3.16669H18.1967C22.1274 3.16669 25.3332 6.31752 25.3332 10.1967V17.7809H15.6675ZM31.081 13.522L35.7043 18.1295C35.9418 18.367 36.0685 18.6678 36.0685 19.0003C36.0685 19.317 35.9418 19.6337 35.7043 19.8553L31.081 24.4628C30.8435 24.7003 30.5268 24.827 30.226 24.827C29.9093 24.827 29.5927 24.7003 29.3552 24.4628C28.8802 23.9878 28.8802 23.212 29.3552 22.737L31.8885 20.2195H25.3335V17.7812H31.8885L29.3552 15.2637C28.8802 14.7887 28.8802 14.0128 29.3552 13.5378C29.8302 13.047 30.606 13.047 31.081 13.522Z" fill="white"/>
</svg>
