<svg width="40" height="40" viewBox="0 0 40 40" fill="none" xmlns="http://www.w3.org/2000/svg">
<path fill-rule="evenodd" clip-rule="evenodd" d="M14.8764 27.3167H23.8533C24.5299 27.3167 25.0909 26.75 25.0909 26.0667C25.0909 25.3834 24.5299 24.8334 23.8533 24.8334H14.8764C14.1998 24.8334 13.6388 25.3834 13.6388 26.0667C13.6388 26.75 14.1998 27.3167 14.8764 27.3167ZM20.454 16.5H14.8764C14.1998 16.5 13.6388 17.0667 13.6388 17.75C13.6388 18.4334 14.1998 18.9834 14.8764 18.9834H20.454C21.1305 18.9834 21.6916 18.4334 21.6916 17.75C21.6916 17.0667 21.1305 16.5 20.454 16.5ZM32.2303 15.0427C32.6182 15.0382 33.0405 15.0334 33.4243 15.0334C33.8368 15.0334 34.1668 15.3667 34.1668 15.7834V29.1834C34.1668 33.3167 30.85 36.6667 26.7576 36.6667H13.6223C9.33185 36.6667 5.8335 33.15 5.8335 28.8167V10.85C5.8335 6.71671 9.16683 3.33337 13.2757 3.33337H22.0876C22.5167 3.33337 22.8467 3.68337 22.8467 4.10004V9.46671C22.8467 12.5167 25.3384 15.0167 28.3582 15.0334C29.0636 15.0334 29.6855 15.0386 30.2297 15.0433C30.653 15.0469 31.0294 15.05 31.3615 15.05C31.5964 15.05 31.9009 15.0465 32.2303 15.0427ZM32.6853 12.61C31.3289 12.615 29.7299 12.61 28.5797 12.5984C26.7546 12.5984 25.2513 11.08 25.2513 9.23671V4.84337C25.2513 4.12504 26.1144 3.76837 26.6078 4.28671C27.5008 5.2246 28.7281 6.51382 29.9498 7.79714C31.1683 9.07712 32.3812 10.3512 33.2513 11.265C33.7332 11.77 33.38 12.6084 32.6853 12.61Z" fill="white"/>
</svg>
