<svg width="33" height="17" viewBox="0 0 33 17" fill="none" xmlns="http://www.w3.org/2000/svg">
<path d="M0.44 16V1.1H6C7.01333 1.1 7.90667 1.28667 8.68 1.66C9.46667 2.02 10.08 2.55333 10.52 3.26C10.96 3.95333 11.18 4.8 11.18 5.8C11.18 6.78667 10.9533 7.63333 10.5 8.34C10.06 9.03333 9.45333 9.56667 8.68 9.94C7.90667 10.3133 7.01333 10.5 6 10.5H3.16V16H0.44ZM3.16 8.1H6.04C6.53333 8.1 6.96 8.00667 7.32 7.82C7.68 7.62 7.96 7.34667 8.16 7C8.36 6.65333 8.46 6.25333 8.46 5.8C8.46 5.33333 8.36 4.93333 8.16 4.6C7.96 4.25333 7.68 3.98667 7.32 3.8C6.96 3.6 6.53333 3.5 6.04 3.5H3.16V8.1ZM13.4088 16V1.1H16.1288V16H13.4088ZM25.9947 16.24C24.928 16.24 23.9414 16.0467 23.0347 15.66C22.1414 15.2733 21.3547 14.7333 20.6747 14.04C20.008 13.3467 19.488 12.5333 19.1147 11.6C18.7414 10.6667 18.5547 9.64667 18.5547 8.54C18.5547 7.43333 18.7347 6.41333 19.0947 5.48C19.468 4.53333 19.988 3.72 20.6547 3.04C21.3347 2.34667 22.128 1.81333 23.0347 1.44C23.9414 1.05333 24.928 0.859999 25.9947 0.859999C27.0614 0.859999 28.0147 1.04 28.8547 1.4C29.708 1.76 30.428 2.24 31.0147 2.84C31.6014 3.42667 32.0214 4.07333 32.2747 4.78L29.8347 5.92C29.5547 5.17333 29.0814 4.56 28.4147 4.08C27.748 3.58667 26.9414 3.34 25.9947 3.34C25.0614 3.34 24.2347 3.56 23.5147 4C22.808 4.44 22.2547 5.04667 21.8547 5.82C21.468 6.59333 21.2747 7.5 21.2747 8.54C21.2747 9.58 21.468 10.4933 21.8547 11.28C22.2547 12.0533 22.808 12.66 23.5147 13.1C24.2347 13.54 25.0614 13.76 25.9947 13.76C26.9414 13.76 27.748 13.52 28.4147 13.04C29.0814 12.5467 29.5547 11.9267 29.8347 11.18L32.2747 12.32C32.0214 13.0267 31.6014 13.68 31.0147 14.28C30.428 14.8667 29.708 15.34 28.8547 15.7C28.0147 16.06 27.0614 16.24 25.9947 16.24Z" fill="white"/>
</svg>
