<svg width="279" height="290" viewBox="0 0 279 290" fill="none" xmlns="http://www.w3.org/2000/svg">
<path fill-rule="evenodd" clip-rule="evenodd" d="M89.9351 45.6093C86.8325 49.7998 87.1888 55.7773 91.1087 59.5707C95.2815 63.7435 102.097 63.7435 106.27 59.5707L128.385 37.316V94.9001H149.806V37.316L171.921 59.5707L173.121 60.6053C177.311 63.709 183.289 63.3642 187.082 59.5707C189.169 57.4844 190.281 54.7025 190.281 51.9207C190.281 49.2779 189.169 46.4961 187.082 44.4097L146.606 3.79482L145.345 2.66094C143.546 1.30785 141.321 0.595703 139.095 0.595703C136.175 0.595703 133.532 1.70844 131.445 3.79482L90.9696 44.4097L89.9351 45.6093ZM58.8521 94.971C26.1202 96.517 0 124.051 0 157.595V226.656L0.067293 229.612C1.58701 262.922 28.6569 289.631 61.896 289.631H216.427L219.332 289.563C252.064 288.017 278.184 260.479 278.184 226.797V157.878L278.117 154.911C276.589 121.478 249.392 94.9026 216.288 94.9026H149.802V179.813L149.703 181.306C148.984 186.667 144.447 190.71 139.092 190.71C133.111 190.71 128.382 185.899 128.382 179.813V94.9026H61.7569L58.8521 94.971Z" fill="white"/>
</svg>
