<svg width="42" height="42" viewBox="0 0 42 42" fill="none" xmlns="http://www.w3.org/2000/svg">
<path fill-rule="evenodd" clip-rule="evenodd" d="M28.2771 14.4075C28.2771 18.5194 24.999 21.8166 20.9108 21.8166C16.8226 21.8166 13.5445 18.5194 13.5445 14.4075C13.5445 10.294 16.8226 7 20.9108 7C24.999 7 28.2771 10.294 28.2771 14.4075ZM20.9108 35C14.9062 35 9.77915 34.0481 9.77915 30.2403C9.77915 26.431 14.8733 25.4443 20.9108 25.4443C26.9154 25.4443 32.0424 26.3963 32.0424 30.2056C32.0424 34.0134 26.9483 35 20.9108 35ZM31.4249 14.5411C31.4249 16.6373 30.7997 18.59 29.7028 20.2134C29.59 20.3804 29.6903 20.6058 29.8893 20.6405C30.1635 20.6878 30.4471 20.7146 30.7355 20.7225C33.6108 20.7981 36.1916 18.9368 36.9046 16.1345C37.9607 11.9722 34.8597 8.23532 30.911 8.23532C30.4816 8.23532 30.0711 8.28102 29.6715 8.36298C29.6166 8.37559 29.5587 8.4008 29.5273 8.44966C29.4897 8.50955 29.5179 8.58993 29.5555 8.64194C30.7417 10.3141 31.4249 12.3536 31.4249 14.5411ZM36.1869 23.647C38.1189 24.0268 39.3897 24.8022 39.9162 25.9291C40.3613 26.8543 40.3613 27.9276 39.9162 28.8512C39.1108 30.599 36.5144 31.1601 35.5053 31.3051C35.2969 31.3366 35.1292 31.1554 35.1511 30.9457C35.6667 26.1025 31.5659 23.8062 30.5051 23.2782C30.4597 23.2546 30.4503 23.2183 30.455 23.1962C30.4581 23.1805 30.4769 23.1553 30.5114 23.1505C32.807 23.108 35.2749 23.4232 36.1869 23.647ZM11.2649 20.7223C11.5533 20.7144 11.8353 20.6892 12.1111 20.6403C12.3101 20.6057 12.4104 20.3803 12.2976 20.2132C11.2007 18.5899 10.5755 16.6371 10.5755 14.541C10.5755 12.3534 11.2587 10.314 12.4449 8.64178C12.4825 8.58977 12.5091 8.50939 12.4731 8.4495C12.4417 8.40222 12.3822 8.37543 12.3289 8.36282C11.9278 8.28087 11.5172 8.23516 11.0879 8.23516C7.13915 8.23516 4.03815 11.972 5.09584 16.1344C5.8088 18.9366 8.38958 20.7979 11.2649 20.7223ZM11.5446 23.1953C11.5493 23.2189 11.5399 23.2536 11.4961 23.2788C10.4337 23.8068 6.33295 26.1031 6.84848 30.9448C6.87042 31.156 6.70432 31.3357 6.49591 31.3057C5.4868 31.1607 2.89035 30.5996 2.08494 28.8518C1.63835 27.9266 1.63835 26.8549 2.08494 25.9298C2.61143 24.8029 3.88067 24.0275 5.81272 23.646C6.72626 23.4238 9.19264 23.1086 11.4898 23.1512C11.5243 23.1559 11.5415 23.1811 11.5446 23.1953Z" fill="#141414"/>
</svg>
